<svg width="8" height="6" viewBox="0 0 8 6" fill="none" xmlns="http://www.w3.org/2000/svg">
<path d="M7.094 2.4C7.094 2.68 6.996 2.89 6.8 3.044C6.59 3.212 6.352 3.282 6.086 3.282C6.002 3.282 5.848 3.268 5.596 3.24C5.33 3.212 5.134 3.198 5.022 3.198C4.798 3.198 4.574 3.226 4.322 3.268C4.546 3.52 4.854 3.772 5.26 3.996C5.582 4.192 5.806 4.332 5.918 4.43C6.114 4.626 6.212 4.864 6.212 5.116C6.212 5.34 6.128 5.536 5.988 5.676C5.82 5.844 5.638 5.914 5.414 5.914C4.91 5.914 4.588 5.48 4.42 4.612C4.322 4.164 4.182 3.786 4 3.492C3.804 3.786 3.664 4.164 3.58 4.612C3.412 5.48 3.076 5.914 2.586 5.914C2.362 5.914 2.166 5.844 2.012 5.676C1.858 5.536 1.788 5.34 1.788 5.116C1.788 4.864 1.886 4.626 2.082 4.43C2.194 4.332 2.404 4.192 2.74 3.996C3.132 3.772 3.454 3.52 3.678 3.268C3.426 3.226 3.188 3.198 2.978 3.198C2.852 3.198 2.656 3.212 2.404 3.24C2.152 3.268 1.984 3.282 1.914 3.282C1.634 3.282 1.396 3.212 1.2 3.044C1.004 2.89 0.906 2.68 0.906 2.4C0.906 2.19 0.99 2.008 1.158 1.868C1.326 1.728 1.508 1.644 1.732 1.644C2.012 1.644 2.362 1.854 2.81 2.26C3.118 2.554 3.44 2.778 3.804 2.918C3.762 2.526 3.664 2.148 3.496 1.784C3.286 1.35 3.188 1.042 3.188 0.859999C3.188 0.622 3.258 0.411999 3.412 0.244C3.566 0.0759994 3.762 -0.00800037 4 -0.00800037C4.224 -0.00800037 4.42 0.0759994 4.588 0.244C4.728 0.411999 4.812 0.622 4.812 0.859999C4.812 1.042 4.7 1.35 4.504 1.784C4.336 2.148 4.224 2.526 4.196 2.918C4.546 2.778 4.882 2.554 5.19 2.26C5.624 1.854 5.988 1.644 6.268 1.644C6.478 1.644 6.674 1.728 6.842 1.868C7.01 2.008 7.094 2.19 7.094 2.4Z" fill="#FF4D4F"/>
</svg>
