<svg width="49" height="48" viewBox="0 0 49 48" fill="none" xmlns="http://www.w3.org/2000/svg">
<path d="M42.0457 20.6775L42.0363 20.64L36.7769 7.27598C36.5425 6.52129 35.8441 6.00098 35.0519 6.00098H13.7332C12.9363 6.00098 12.2285 6.53066 12.0035 7.29473L7.08629 20.5229L7.07223 20.5557L7.06285 20.5932C7.00191 20.8229 6.98316 21.0572 7.01598 21.2869C7.01129 21.3619 7.0066 21.4369 7.0066 21.5119V38.6635C7.00784 39.419 7.30851 40.1432 7.84272 40.6774C8.37693 41.2116 9.10112 41.5122 9.8566 41.5135H39.2566C40.8269 41.5135 42.1066 40.2338 42.1113 38.6635V21.5119C42.1113 21.451 42.1113 21.39 42.1066 21.3385C42.1254 21.1088 42.1066 20.8885 42.0457 20.6775ZM28.18 18.6619L28.166 19.3979C28.1285 21.5025 26.6754 22.9182 24.5519 22.9182C23.516 22.9182 22.6254 22.5854 21.9832 21.9525C21.341 21.3197 20.9894 20.4385 20.9707 19.3979L20.9566 18.6619H11.3097L15.0363 9.60098H33.7488L37.5785 18.6619H28.18ZM10.6019 22.2619H17.9754C19.1144 24.9385 21.5379 26.5182 24.5566 26.5182C26.1363 26.5182 27.6035 26.0775 28.7894 25.2432C29.83 24.5119 30.641 23.49 31.166 22.2619H38.5019V37.9135H10.6019V22.2619Z" fill="#4D567C"/>
</svg>
