<svg width="24" height="24" viewBox="0 0 24 24" fill="none" xmlns="http://www.w3.org/2000/svg">
<path d="M9.26256 10.2203H22.1197C22.2376 10.2203 22.334 10.1239 22.334 10.006V8.50603C22.334 8.38818 22.2376 8.29175 22.1197 8.29175H9.26256C9.1447 8.29175 9.04827 8.38818 9.04827 8.50603V10.006C9.04827 10.1239 9.1447 10.2203 9.26256 10.2203ZM9.04827 15.6846C9.04827 15.8025 9.1447 15.8989 9.26256 15.8989H22.1197C22.2376 15.8989 22.334 15.8025 22.334 15.6846V14.1846C22.334 14.0667 22.2376 13.9703 22.1197 13.9703H9.26256C9.1447 13.9703 9.04827 14.0667 9.04827 14.1846V15.6846ZM22.5483 2.66675H1.54827C1.43041 2.66675 1.33398 2.76318 1.33398 2.88103V4.38103C1.33398 4.49889 1.43041 4.59532 1.54827 4.59532H22.5483C22.6661 4.59532 22.7626 4.49889 22.7626 4.38103V2.88103C22.7626 2.76318 22.6661 2.66675 22.5483 2.66675ZM22.5483 19.5953H1.54827C1.43041 19.5953 1.33398 19.6918 1.33398 19.8096V21.3096C1.33398 21.4275 1.43041 21.5239 1.54827 21.5239H22.5483C22.6661 21.5239 22.7626 21.4275 22.7626 21.3096V19.8096C22.7626 19.6918 22.6661 19.5953 22.5483 19.5953ZM1.42506 12.2801L5.61166 15.5775C5.76702 15.7007 5.99738 15.5909 5.99738 15.3926V8.798C5.99738 8.59978 5.7697 8.48996 5.61166 8.61318L1.42506 11.9105C1.3969 11.9324 1.37412 11.9604 1.35846 11.9924C1.34279 12.0245 1.33464 12.0597 1.33464 12.0953C1.33464 12.131 1.34279 12.1662 1.35846 12.1982C1.37412 12.2302 1.3969 12.2583 1.42506 12.2801Z" fill="#626D95"/>
</svg>
