<svg width="16" height="16" viewBox="0 0 16 16" fill="none" xmlns="http://www.w3.org/2000/svg">
<path fill-rule="evenodd" clip-rule="evenodd" d="M15.18 8.32069C15.3514 8.12672 15.6476 8.10829 15.8416 8.27968C16.0357 8.45106 16.054 8.74733 15.8825 8.94142L15.0549 9.87843C14.9659 9.97914 14.8379 10.0368 14.7035 10.0368C14.5691 10.0368 14.4412 9.97914 14.3522 9.87843L13.5246 8.94142C13.3532 8.74745 13.3715 8.45118 13.5656 8.2798C13.7596 8.10841 14.0558 8.12672 14.2272 8.32081L14.2349 8.32936V8.00087C14.2349 4.56299 11.4379 1.76599 8.00003 1.76599C6.9938 1.76599 5.99441 2.01111 5.10977 2.47486C4.25295 2.92395 3.50076 3.57752 2.93459 4.36487C2.78347 4.57508 2.4905 4.62293 2.28029 4.47169C2.07009 4.32056 2.02224 4.02759 2.17336 3.81751C2.82424 2.91236 3.68911 2.16101 4.67446 1.64453C5.6929 1.11072 6.8428 0.828491 8.00003 0.828491C9.9158 0.828491 11.717 1.57446 13.0716 2.92908C14.4263 4.28382 15.1724 6.08497 15.1724 8.00074V8.32924L15.18 8.32069ZM13.0655 11.635C13.2167 11.4248 13.5096 11.3771 13.7198 11.5282C13.93 11.6793 13.9777 11.9722 13.8266 12.1824C13.1757 13.0874 12.3108 13.8389 11.3256 14.3554C10.3072 14.8892 9.15714 15.1714 8.00003 15.1714C6.08426 15.1714 4.2831 14.4254 2.92849 13.0707C1.57375 11.716 0.827655 9.91493 0.827655 7.99903V7.67054L0.820086 7.67921C0.727435 7.78407 0.598284 7.83766 0.468646 7.83766C0.358294 7.83766 0.247576 7.79896 0.158464 7.7201C-0.0356277 7.54872 -0.0539383 7.25257 0.117449 7.05848L0.945209 6.12147C1.03408 6.02076 1.16213 5.96302 1.29653 5.96302C1.43093 5.96302 1.55874 6.02076 1.64785 6.12147L2.47548 7.05848C2.64687 7.25245 2.62856 7.54872 2.43447 7.7201C2.2405 7.89161 1.94423 7.87318 1.77285 7.67921L1.76516 7.67054V7.99903C1.76516 11.4369 4.56216 14.2339 8.00003 14.2339C9.00613 14.2339 10.0056 13.9888 10.8903 13.525C11.7471 13.0758 12.4993 12.4223 13.0655 11.635ZM8.00003 9.87404C9.03384 9.87404 9.87503 9.03297 9.87503 7.99903C9.87503 6.96522 9.03384 6.12403 8.00003 6.12403C6.96609 6.12403 6.12503 6.96522 6.12503 7.99903C6.12503 9.03297 6.96609 9.87404 8.00003 9.87404ZM8.00003 7.06153C8.517 7.06153 8.93753 7.48207 8.93753 7.99903C8.93753 8.516 8.517 8.93654 8.00003 8.93654C7.48306 8.93654 7.06253 8.516 7.06253 7.99903C7.06253 7.48207 7.48306 7.06153 8.00003 7.06153ZM3.42336 9.55568C3.36111 9.44801 3.34426 9.32008 3.37649 9.20009C3.40871 9.07997 3.48721 8.97755 3.59499 8.91542L4.28567 8.51661C4.26199 8.34535 4.25002 8.17225 4.25002 7.99903C4.25002 7.82374 4.26223 7.64881 4.28652 7.47572L3.59487 7.07643C3.48721 7.01429 3.40871 6.91187 3.37649 6.79176C3.34438 6.67176 3.36123 6.54371 3.42336 6.43604L4.36086 4.81226C4.49026 4.58814 4.777 4.51124 5.00112 4.64075L5.69509 5.04139C5.96914 4.82789 6.27273 4.65259 6.59378 4.52222V3.7212C6.59378 3.46241 6.80362 3.25245 7.06253 3.25245H8.93753C9.19644 3.25245 9.40628 3.46241 9.40628 3.7212V4.52222C9.72745 4.65259 10.0309 4.82789 10.3051 5.04139L10.9989 4.64075C11.2231 4.51136 11.5098 4.58814 11.6392 4.81226L12.5767 6.43604C12.6388 6.54371 12.6557 6.67164 12.6236 6.79176C12.5913 6.91187 12.5129 7.01429 12.4052 7.07643L11.7135 7.47572C11.7378 7.64881 11.75 7.82374 11.75 7.99903C11.75 8.17225 11.7381 8.34547 11.7144 8.51661L12.4052 8.91542C12.5127 8.97755 12.5913 9.07997 12.6236 9.20009C12.6557 9.32008 12.6388 9.44801 12.5767 9.55568L11.6392 11.1796C11.5771 11.2872 11.4746 11.3657 11.3545 11.398C11.2345 11.4301 11.1065 11.4132 10.9989 11.3511L10.3096 10.9531C10.0343 11.1682 9.72928 11.3447 9.40628 11.4758V12.2706C9.40628 12.5294 9.19632 12.7394 8.93753 12.7394H7.06253C6.80362 12.7394 6.59378 12.5294 6.59378 12.2706V11.4758C6.27078 11.3447 5.96572 11.1682 5.69046 10.9531L5.00112 11.3511C4.89346 11.4133 4.76553 11.4301 4.64541 11.398C4.52541 11.3657 4.423 11.2872 4.36086 11.1796L3.42336 9.55568ZM5.18753 7.99903C5.18753 8.21827 5.21292 8.43702 5.26309 8.64906C5.31069 8.8506 5.22048 9.05934 5.04129 9.16286L4.46963 9.49293L4.93838 10.3048L5.5093 9.97523C5.68899 9.8716 5.91543 9.89821 6.06607 10.0409C6.38565 10.3439 6.77652 10.57 7.19632 10.695C7.39505 10.754 7.53128 10.9368 7.53128 11.1442V11.8019H8.46878V11.1442C8.46878 10.9368 8.60501 10.754 8.80386 10.695C9.22354 10.57 9.61441 10.3438 9.93399 10.0409C10.0846 9.89821 10.3112 9.87147 10.4909 9.97523L11.0617 10.3048L11.5304 9.49293L10.9588 9.16286C10.7795 9.05934 10.6894 8.8506 10.737 8.64906C10.787 8.43702 10.8125 8.21827 10.8125 7.99903C10.8125 7.77821 10.7867 7.55799 10.7358 7.34437C10.6878 7.14271 10.7779 6.93336 10.9574 6.82972L11.5304 6.49891L11.0617 5.68702L10.4866 6.01905C10.3073 6.12257 10.0811 6.09608 9.93045 5.95387C9.61148 5.65272 9.22196 5.42762 8.80374 5.30323C8.60501 5.24403 8.46878 5.06129 8.46878 4.85389V4.18995H7.53128V4.85389C7.53128 5.06129 7.39493 5.24403 7.1962 5.30323C6.7781 5.42762 6.38858 5.6526 6.06961 5.95387C5.91897 6.09608 5.69278 6.12257 5.51333 6.01905L4.93838 5.68702L4.46963 6.49891L5.04263 6.82972C5.22219 6.93336 5.31228 7.14271 5.26419 7.34437C5.21328 7.55799 5.18753 7.77821 5.18753 7.99903Z" fill="white"/>
</svg>
