<svg width="24" height="24" viewBox="0 0 24 24" fill="none" xmlns="http://www.w3.org/2000/svg">
<g clip-path="url(#clip0_6698_79926)">
<path d="M21.4067 24H2.59333C1.16109 24 0 22.8389 0 21.4067V2.59333C0 1.16109 1.16109 0 2.59333 0H21.4066C22.8389 0 24 1.16109 24 2.59333V21.4066C24 22.8389 22.8389 24 21.4067 24Z" fill="#4386FA"/>
<path d="M19.9798 18.7026L17.363 16.0797C17.3345 16.0505 17.3019 16.0257 17.2661 16.0061C18.3792 14.5724 18.9038 12.7682 18.733 10.9612C18.5622 9.15411 17.7088 7.48017 16.3468 6.28038C14.9848 5.08059 13.2166 4.44521 11.4025 4.50371C9.5883 4.5622 7.8647 5.31017 6.58281 6.59521C5.30093 7.88025 4.5572 9.60568 4.50316 11.42C4.44913 13.2343 5.08885 15.0009 6.29198 16.36C7.49512 17.719 9.17115 18.5682 10.9786 18.7346C12.7861 18.901 14.5889 18.3719 16.0199 17.2553C16.0386 17.2891 16.0619 17.3201 16.0892 17.3473L18.7122 19.9703C18.7892 20.0472 18.8937 20.0905 19.0026 20.0905C19.1115 20.0905 19.2159 20.0472 19.293 19.9703L19.9798 19.2834C20.0568 19.2064 20.1 19.1019 20.1 18.993C20.1 18.8841 20.0568 18.7797 19.9798 18.7026ZM11.6228 17.0064C10.5614 17.0065 9.52388 16.6918 8.64134 16.1023C7.7588 15.5127 7.07092 14.6746 6.66469 13.6941C6.25847 12.7135 6.15215 11.6345 6.35918 10.5935C6.56622 9.55256 7.0773 8.59635 7.8278 7.84585C8.5783 7.09536 9.5345 6.58427 10.5755 6.37724C11.6165 6.17021 12.6954 6.27653 13.676 6.68275C14.6565 7.08897 15.4946 7.77685 16.0842 8.6594C16.6738 9.54194 16.9884 10.5795 16.9883 11.6409C16.9881 13.0638 16.4228 14.4285 15.4166 15.4347C14.4104 16.4408 13.0458 17.0062 11.6228 17.0064ZM8.19281 11.3545V13.572C8.5344 14.1749 9.02869 14.6778 9.62663 15.0286V11.341L8.19281 11.3545ZM10.8759 9.5159V15.5087C11.3498 15.5961 11.8357 15.5961 12.3097 15.5087V9.5159H10.8759ZM15.024 13.5671V12.2535H13.5914V15.0132C14.1885 14.6634 14.683 14.1625 15.0252 13.561L15.024 13.5671Z" fill="white"/>
</g>
<defs>
<clipPath id="clip0_6698_79926">
<rect width="24" height="24" fill="white"/>
</clipPath>
</defs>
</svg>
