<svg width="17" height="16" viewBox="0 0 17 16" fill="none" xmlns="http://www.w3.org/2000/svg">
<path d="M14.7075 4.58572L11.9144 1.79322C11.8215 1.70034 11.7113 1.62666 11.5899 1.57639C11.4686 1.52612 11.3385 1.50024 11.2072 1.50024C11.0759 1.50024 10.9458 1.52612 10.8245 1.57639C10.7031 1.62666 10.5929 1.70034 10.5 1.79322L2.79313 9.50009C2.69987 9.59262 2.62593 9.70275 2.5756 9.8241C2.52528 9.94546 2.49959 10.0756 2.50001 10.207V13.0001C2.50001 13.2653 2.60536 13.5197 2.7929 13.7072C2.98043 13.8947 3.23479 14.0001 3.50001 14.0001H14C14.1326 14.0001 14.2598 13.9474 14.3536 13.8536C14.4473 13.7599 14.5 13.6327 14.5 13.5001C14.5 13.3675 14.4473 13.2403 14.3536 13.1465C14.2598 13.0528 14.1326 13.0001 14 13.0001H7.70751L14.7075 6.00009C14.8004 5.90723 14.8741 5.79698 14.9243 5.67564C14.9746 5.5543 15.0005 5.42425 15.0005 5.29291C15.0005 5.16156 14.9746 5.03151 14.9243 4.91017C14.8741 4.78883 14.8004 4.67858 14.7075 4.58572ZM6.29313 13.0001H3.50001V10.207L9.00001 4.70697L11.7931 7.50009L6.29313 13.0001ZM12.5 6.79322L9.70751 4.00009L11.2075 2.50009L14 5.29322L12.5 6.79322Z" fill="#3F4565"/>
</svg>
