<svg width="24" height="24" viewBox="0 0 24 24" fill="none" xmlns="http://www.w3.org/2000/svg">
<rect width="24" height="24" rx="2" fill="#F29111"/>
<g clip-path="url(#clip0_9754_8214)">
<path d="M17.8281 16.9934C16.9517 16.9703 16.2734 17.0634 15.7036 17.3196C15.5391 17.3896 15.278 17.3896 15.2549 17.6108C15.3438 17.7039 15.3543 17.8551 15.4313 17.9839C15.5622 18.2163 15.7911 18.5299 16.0004 18.693C16.23 18.8799 16.4603 19.0654 16.7018 19.2278C17.1274 19.5078 17.6104 19.6709 18.0248 19.9502C18.267 20.1126 18.5078 20.3226 18.7493 20.4976C18.8683 20.5907 18.9453 20.7419 19.0993 20.8V20.765C19.0223 20.66 18.9999 20.5081 18.9243 20.3919L18.5953 20.0545C18.2778 19.6071 17.8937 19.211 17.4564 18.8799C17.1064 18.623 16.3392 18.2737 16.1971 17.8446L16.1747 17.8208C16.4162 17.797 16.7018 17.7039 16.9307 17.6325C17.3031 17.5282 17.6426 17.552 18.0248 17.4477C18.2012 17.4008 18.3748 17.3427 18.5519 17.2846V17.1796C18.3538 16.9696 18.2124 16.6917 18.0038 16.4936C17.4402 15.9696 16.8364 15.4907 16.1978 15.0614C15.8569 14.8283 15.4201 14.6778 15.0582 14.4797C14.9273 14.4097 14.7082 14.3747 14.6312 14.2585C14.4345 14.0023 14.3239 13.6649 14.1818 13.3625C13.8578 12.6983 13.5584 12.0223 13.2844 11.336C13.087 10.8824 12.9666 10.4295 12.7258 10.0095C11.5974 8.03131 10.3717 6.83291 8.48796 5.65621C8.08336 5.41121 7.60176 5.30691 7.08796 5.17881L6.26546 5.13261C6.09046 5.05071 5.91546 4.82951 5.76146 4.72451C5.13776 4.30591 3.52916 3.39801 3.06926 4.59641C2.77316 5.35451 3.50676 6.09861 3.75946 6.48291C3.94496 6.74961 4.18646 7.05341 4.31666 7.35581C4.39366 7.55391 4.41536 7.76391 4.49236 7.97321C4.66736 8.48561 4.83186 9.05541 5.06216 9.53281C5.18186 9.77711 5.31346 10.0326 5.46676 10.2538C5.55496 10.3826 5.70756 10.4393 5.74116 10.65C5.58856 10.881 5.57666 11.231 5.48916 11.5222C5.09506 12.8382 5.24906 14.4671 5.80696 15.4338C5.98196 15.7243 6.39846 16.3648 6.95636 16.1198C7.44986 15.9098 7.34066 15.2469 7.48206 14.6652C7.51496 14.5252 7.49326 14.4321 7.55906 14.3404V14.3628C7.71166 14.6883 7.86566 15.0026 8.00706 15.3288C8.34726 15.8986 8.93806 16.4929 9.43156 16.8877C9.69406 17.0977 9.90126 17.4582 10.2296 17.587V17.552H10.2086C10.1421 17.4477 10.0448 17.4008 9.95726 17.3203C9.74876 17.1032 9.5582 16.8696 9.38746 16.6217C8.92896 15.9693 8.52226 15.2476 8.16246 14.5028C7.98536 14.1409 7.83346 13.7461 7.69136 13.3856C7.62486 13.2456 7.62486 13.0356 7.51496 12.9656C7.35046 13.2218 7.11036 13.443 6.98996 13.7566C6.78136 14.2578 6.76036 14.8745 6.68266 15.5157L6.63926 15.5381C6.29066 15.445 6.16956 15.0621 6.03726 14.7359C5.70826 13.9092 5.65366 12.5813 5.93856 11.6279C6.01486 11.3836 6.34456 10.615 6.21296 10.3826C6.14716 10.16 5.92736 10.0326 5.80696 9.85761C5.65411 9.62132 5.52224 9.37211 5.41286 9.11281C5.15036 8.46181 5.01806 7.73941 4.73526 7.08841C4.60296 6.78531 4.37336 6.47101 4.18786 6.19171C3.97926 5.87671 3.74966 5.65621 3.58446 5.28381C3.52986 5.15571 3.45356 4.94641 3.54106 4.80711C3.56206 4.71331 3.60686 4.67831 3.69436 4.65521C3.83646 4.52781 4.24176 4.69021 4.38386 4.76021C4.78986 4.93451 5.12936 5.09761 5.46816 5.34121C5.62146 5.45881 5.78596 5.68001 5.98266 5.73811H6.21296C6.56296 5.81931 6.95636 5.76051 7.28606 5.86551C7.86566 6.06361 8.39206 6.35481 8.86246 6.66841C10.2975 7.63511 11.4798 9.00921 12.2785 10.65C12.4094 10.9174 12.4647 11.1624 12.5844 11.441C12.8154 12.0115 13.1003 12.5939 13.3292 13.1525C13.5595 13.6992 13.7786 14.2578 14.1069 14.7121C14.2707 14.9564 14.9294 15.0845 15.2248 15.2126C15.4432 15.3169 15.7827 15.4093 15.9801 15.5374C16.3525 15.7817 16.7235 16.0624 17.0735 16.3298C17.2485 16.4698 17.7952 16.761 17.8281 16.9934ZM6.65886 6.87841C6.50751 6.87687 6.35669 6.89666 6.21086 6.93721V6.96031H6.23186C6.32006 7.14651 6.47336 7.27531 6.58256 7.43771C6.67076 7.62461 6.74706 7.80941 6.83386 7.99561L6.85486 7.97251C7.00886 7.85631 7.08586 7.67011 7.08586 7.39081C7.01936 7.30821 7.00886 7.22771 6.95426 7.14581C6.88916 7.02961 6.74706 6.97221 6.65886 6.87841Z" fill="white"/>
</g>
<defs>
<clipPath id="clip0_9754_8214">
<rect width="16.8" height="16.8" fill="white" transform="translate(3 4)"/>
</clipPath>
</defs>
</svg>
