<svg width="17" height="19" viewBox="0 0 17 19" fill="none" xmlns="http://www.w3.org/2000/svg">
<path d="M10.8048 8.80481L7.2392 9.96641L4.1376 11.3328L3.2704 11.5616C3.0488 11.7712 2.8176 11.984 2.5664 12.1992C2.32757 12.4064 2.08486 12.6091 1.8384 12.8072C1.5823 13.0182 1.34611 13.2522 1.1328 13.5064C0.887999 13.8128 0.693599 14.1384 0.610399 14.388C0.461599 14.84 0.534399 15.2976 0.820799 15.72C1.1872 16.2576 1.9168 16.8064 2.7688 17.18C3.2024 17.3712 3.9328 17.616 4.4824 17.7528C5.396 17.9848 7.164 18.2344 8.1368 18.2728C8.3336 18.2808 8.5976 18.2808 8.6088 18.2728C8.6304 18.2584 8.7808 17.9712 8.956 17.6136C9.5544 16.3952 9.9856 15.252 10.22 14.2752C10.36 13.6832 10.4704 12.896 10.5432 11.9632C10.5624 11.7016 10.5704 10.8272 10.5544 10.5312C10.536 10.1085 10.4909 9.6874 10.4192 9.27041C10.4088 9.21441 10.4056 9.16241 10.4112 9.16001C10.4224 9.15201 10.4544 9.14081 10.8936 9.01441L10.8048 8.80481ZM9.9912 9.28081C10.0232 9.28081 10.1096 10.1064 10.1312 10.628C10.1381 10.6892 10.137 10.7511 10.128 10.812C10.1072 10.812 9.6728 10.556 9.3632 10.3624C9.07094 10.1788 8.78338 9.9878 8.5008 9.78961C8.4736 9.77041 8.4768 9.76801 8.6976 9.69281C9.072 9.56561 9.9616 9.28081 9.9912 9.28081ZM8.1752 9.87761C8.1992 9.87761 8.2608 9.91281 8.4088 10.0048C8.964 10.3512 9.7192 10.7712 10.0424 10.9112C10.1416 10.9536 10.1528 10.9376 9.9232 11.0936C9.4328 11.4272 8.8216 11.7552 8.072 12.0856C7.99125 12.1227 7.90963 12.158 7.8272 12.1912C7.83245 12.1409 7.84318 12.0912 7.8592 12.0432C8.04 11.3736 8.1424 10.696 8.1472 10.152C8.1504 9.88321 8.1504 9.88321 8.1744 9.87521C8.1696 9.87841 8.172 9.87841 8.1744 9.87841L8.1752 9.87761ZM7.8 10.0208C7.816 10.0368 7.8056 10.6392 7.784 10.8032C7.72736 11.2654 7.62362 11.7205 7.4744 12.1616C7.4632 12.1752 7.0944 11.8144 6.9728 11.6744C6.77914 11.4552 6.6126 11.2135 6.4768 10.9544C6.4152 10.8328 6.3176 10.596 6.3264 10.588C6.3688 10.5584 7.7896 10.0096 7.8 10.02V10.0208ZM6.0376 10.712C6.04 10.712 6.0432 10.712 6.0456 10.7144C6.0512 10.72 6.0696 10.7624 6.0856 10.8112C6.1728 11.0456 6.3664 11.3896 6.5336 11.6104C6.75294 11.9004 7.00621 12.1631 7.288 12.3928C7.304 12.4088 7.3096 12.4064 6.8704 12.5728C6.3608 12.7664 5.8064 12.96 5.1696 13.1648C5.0176 13.2128 4.8656 13.2624 4.7144 13.3128C4.6904 13.3208 4.6984 13.3072 4.768 13.1968C5.084 12.7048 5.5632 11.7392 5.8328 11.056C5.8784 10.9376 5.9248 10.8192 5.9328 10.792C5.9432 10.7552 5.9568 10.7416 5.992 10.7224C6.0104 10.7168 6.0296 10.712 6.0376 10.712ZM5.4984 10.9352C5.5064 10.94 5.3696 11.228 5.2344 11.492C4.9728 12 4.6872 12.5 4.3048 13.108C4.2408 13.2128 4.1784 13.3096 4.1704 13.3208C4.1568 13.3392 4.1512 13.3344 4.108 13.2504C4.01107 13.0526 3.94112 12.8428 3.9 12.6264C3.86 12.4168 3.868 12.0512 3.9144 11.8256C3.9488 11.6584 3.9464 11.6608 4.0272 11.6208C4.372 11.4456 5.4872 10.9248 5.4984 10.9352ZM10.1472 11.1232V11.236C10.1472 11.836 10.0832 12.6592 9.988 13.2584C9.972 13.364 9.9584 13.4504 9.956 13.4528C9.956 13.4528 9.8776 13.4312 9.7864 13.404C9.35691 13.268 8.94163 13.0906 8.5464 12.8744C8.2848 12.732 7.9048 12.4976 7.916 12.4872C7.9184 12.484 8.032 12.4248 8.164 12.3552C8.692 12.0808 9.1984 11.7848 9.6376 11.4912C9.8024 11.3816 10.0504 11.204 10.104 11.1552L10.1472 11.1232ZM3.4648 11.92C3.476 11.92 3.4728 11.9416 3.4568 12.0384C3.44329 12.134 3.43341 12.2301 3.4272 12.3264C3.4056 12.7184 3.4704 13.0096 3.664 13.4072C3.7184 13.5176 3.7616 13.6096 3.7584 13.612C3.74 13.628 1.956 14.1496 1.3952 14.3032L1.072 14.3912C1.0528 14.3976 1.0504 14.3944 1.0584 14.3488C1.12 13.9536 1.4224 13.4368 1.8424 13.0016C2.1224 12.7112 2.3464 12.5416 2.7288 12.3232C3.004 12.168 3.4272 11.9336 3.4592 11.9232C3.4592 11.92 3.4624 11.92 3.4648 11.92ZM7.6688 12.6704C7.6712 12.668 7.736 12.7024 7.8144 12.7488C8.3904 13.0824 9.1944 13.3912 9.8784 13.5504L9.9408 13.5632L9.8544 13.6112C9.496 13.8112 8.3184 14.3 7.1136 14.7496C6.9384 14.8136 6.7664 14.8784 6.7336 14.892C6.71427 14.9018 6.69346 14.9083 6.672 14.9112C6.672 14.908 6.72 14.8144 6.7824 14.6984C7.1184 14.0688 7.4584 13.3024 7.6304 12.7704C7.6528 12.7192 7.6664 12.6736 7.6688 12.6704ZM7.24 12.8104C7.22837 12.853 7.21312 12.8945 7.1944 12.9344C6.96 13.5016 6.6528 14.12 6.2592 14.8144C6.16 14.992 6.076 15.1344 6.0736 15.1344C6.0712 15.1344 5.9896 15.0864 5.8928 15.0264C5.3216 14.6768 4.8152 14.2464 4.4832 13.8296L4.4352 13.7704L4.68 13.7032C5.5584 13.464 6.3048 13.2056 7.0464 12.8888L7.24 12.8104ZM9.9032 13.7384C9.9056 13.8 9.768 14.3544 9.6552 14.7544C9.51834 15.2382 9.36895 15.7184 9.2072 16.1944C9.19549 16.1929 9.18397 16.1902 9.1728 16.1864C8.3728 16.0408 7.6552 15.8392 6.9816 15.5704C6.82066 15.5068 6.66239 15.4366 6.5072 15.36C6.5024 15.3544 6.664 15.28 6.8688 15.1904C8.0944 14.6552 9.3664 14.048 9.8032 13.7864C9.83379 13.7652 9.86754 13.749 9.9032 13.7384ZM3.756 13.948C3.7616 13.9536 3.4192 14.4456 2.94 15.116C2.772 15.3496 2.5784 15.624 2.5056 15.7256C2.4328 15.828 2.3216 15.9896 2.26 16.0856L2.1472 16.2616L2.0256 16.1592C1.84529 16.0022 1.67783 15.8309 1.5248 15.6472C1.2928 15.36 1.1368 15.056 1.0744 14.7792C1.0448 14.6504 1.0448 14.5856 1.072 14.5776C1.112 14.5664 1.832 14.3976 2.5056 14.2416C2.92292 14.146 3.33972 14.0481 3.756 13.948ZM4.1008 14.08L4.1872 14.176C4.5752 14.6096 4.9712 14.9296 5.4512 15.2096C5.5034 15.235 5.5523 15.2667 5.5968 15.304C5.5776 15.3168 3.9312 15.9008 3.1688 16.164C2.74 16.3152 2.3872 16.436 2.3848 16.436C2.36586 16.4256 2.34768 16.4138 2.3304 16.4008L2.2824 16.3656L2.36 16.2536C2.6136 15.8872 2.9312 15.4864 3.624 14.6528L4.1008 14.08ZM6.2512 15.616C6.2544 15.6128 6.3728 15.656 6.5184 15.7096C6.8688 15.8416 7.1464 15.9256 7.5184 16.0192C7.976 16.1344 8.6384 16.248 9.0304 16.28C9.0888 16.2856 9.1216 16.2904 9.1104 16.2984C9.092 16.3096 8.696 16.4416 8.4048 16.5328C7.26155 16.8795 6.1151 17.2155 4.9656 17.5408C4.9392 17.5472 4.8504 17.5224 4.8504 17.512C4.8504 17.5064 4.9144 17.4232 4.9928 17.3312C5.3808 16.8688 5.7664 16.3528 6.0872 15.8632C6.1752 15.7288 6.2512 15.6184 6.2512 15.6152V15.616ZM5.7768 15.6288C5.78 15.632 5.5888 15.9384 5.2544 16.4656C5.1112 16.6888 4.9528 16.9416 4.896 17.0304C4.8416 17.1168 4.7608 17.2512 4.7152 17.3264L4.6368 17.4632L4.5968 17.4528C4.27428 17.347 3.9542 17.2339 3.6368 17.1136C3.4136 17.0256 3.1816 16.9176 3.0096 16.8256C2.7936 16.7104 2.524 16.5376 2.5456 16.5328C2.5512 16.5304 2.9208 16.4304 3.3648 16.3088C4.5456 15.9888 5.2 15.804 5.6288 15.6688C5.7072 15.6448 5.7744 15.6264 5.7768 15.6288ZM9.132 16.4144H9.1344C9.1456 16.4416 8.7088 17.652 8.5504 18.0336C8.5152 18.1192 8.5016 18.1408 8.4824 18.1384C8.12725 18.0926 7.77257 18.0432 7.4184 17.9904C6.72255 17.8842 6.02906 17.7631 5.3384 17.6272L5.2728 17.6136L5.6744 17.5224C6.5368 17.3288 6.952 17.224 7.372 17.0952C7.9032 16.9336 8.4288 16.732 8.96 16.484C9.0432 16.4464 9.1136 16.4168 9.132 16.4144Z" fill="#EDEDEE"/>
<path d="M7.1295 0.510391C7.0703 0.502391 6.1135 0.846391 5.4967 1.09679C4.6639 1.43519 4.0167 1.75839 3.6183 2.03759C3.4703 2.14239 3.2839 2.32799 3.2543 2.40079C3.24336 2.42994 3.23793 2.46086 3.2383 2.49199L3.5991 2.83359L4.4591 3.10799L6.5047 3.47439L8.8439 3.87439L8.8679 3.67279C8.8599 3.67279 8.8543 3.67039 8.8463 3.67039L8.5391 3.62239L8.4767 3.51199C8.1591 2.95199 7.8087 2.25839 7.6047 1.79039C7.44962 1.438 7.31761 1.07591 7.2095 0.706391C7.1639 0.523991 7.1583 0.512791 7.1295 0.510391ZM7.0863 0.647191H7.0895C7.0919 0.650391 7.1031 0.725591 7.1135 0.814391C7.1591 1.19039 7.2431 1.55359 7.3751 1.94639C7.4743 2.24239 7.4743 2.22639 7.3591 2.19119C7.0839 2.11599 5.8527 1.90319 4.9607 1.77999C4.87223 1.76996 4.78417 1.75661 4.6967 1.73999C4.6855 1.72879 5.3399 1.38719 5.6287 1.25199C5.9975 1.08319 7.0111 0.660791 7.0863 0.647191ZM4.4895 1.85199L4.5943 1.88719C5.1663 2.08079 6.6023 2.35519 7.3943 2.41999L7.5623 2.43599C7.5639 2.43839 7.4887 2.47919 7.3919 2.52399C7.0095 2.71599 6.5887 2.94959 6.2975 3.12959C6.24211 3.16703 6.18348 3.19943 6.1223 3.22639C6.1119 3.22639 6.0551 3.21599 5.9959 3.20799L5.8879 3.19199L5.6191 2.92799C5.29116 2.60946 4.96128 2.29292 4.6295 1.97839L4.4895 1.85199ZM4.3815 1.93599L4.7615 2.40879C4.9695 2.66959 5.1791 2.92559 5.2255 2.98159C5.2711 3.03839 5.3087 3.08399 5.3055 3.08719C5.2951 3.09519 4.7567 2.98959 4.4703 2.92559C4.26965 2.88259 4.07104 2.83054 3.8751 2.76959L3.7271 2.72159V2.68319C3.7295 2.50319 3.9591 2.23439 4.3471 1.95999L4.3815 1.93599ZM7.6103 2.58079C7.6207 2.58079 7.6343 2.60479 7.6663 2.67759C7.7583 2.87999 8.0439 3.42319 8.1143 3.52799C8.1359 3.56319 8.1735 3.56559 7.7935 3.50399C6.8799 3.35599 6.5855 3.30719 6.5855 3.30159C6.60443 3.28555 6.62542 3.2721 6.6479 3.26159C6.9311 3.10559 7.2167 2.90639 7.4703 2.69359L7.5991 2.58639C7.6023 2.58079 7.6071 2.57839 7.6103 2.58079Z" fill="#EDEDEE"/>
<path d="M3.27156 2.36316C3.27156 2.36316 3.21236 2.45756 3.26916 2.59756C3.30356 2.68316 3.40596 2.78796 3.52196 2.89596C3.52196 2.89596 4.72196 4.06316 4.86676 4.22956C5.52996 4.99356 5.81876 5.74636 5.84516 6.78476C5.86116 7.45196 5.73476 8.03836 5.41956 8.71836C4.85876 9.93996 3.67556 11.2872 1.85156 12.7824L2.11796 12.6944C2.29076 12.5648 2.52516 12.428 3.07476 12.1264C4.34436 11.4328 5.77236 10.7952 7.52356 10.1392C10.046 9.19196 14.194 8.08316 16.554 7.72316L16.7996 7.68556L16.762 7.62636C16.546 7.29356 16.398 7.08636 16.2204 6.86556C15.7028 6.22556 15.0748 5.70636 14.3068 5.27596C13.2508 4.68716 11.8844 4.22716 10.1548 3.88556C9.61457 3.78369 9.07262 3.69141 8.52916 3.60876C7.29476 3.41756 6.49716 3.28556 5.61876 3.13516C5.25089 3.07469 4.88417 3.00748 4.51876 2.93356C4.27769 2.88244 4.03949 2.81862 3.80516 2.74236C3.61076 2.66716 3.33076 2.59196 3.27156 2.36316ZM3.96676 3.03516C3.96916 3.03276 4.01236 3.04876 4.06916 3.06716C4.17156 3.10316 4.30356 3.14316 4.45956 3.18636C4.57796 3.21836 4.69716 3.25036 4.81556 3.28076C4.97716 3.32076 5.11156 3.35836 5.11476 3.35836C5.13396 3.37756 5.40596 4.24636 5.49716 4.57916C5.53236 4.70556 5.55956 4.81356 5.55636 4.81356C5.53003 4.78131 5.50748 4.74615 5.48916 4.70876C5.17396 4.15436 4.67556 3.59196 4.09876 3.14076C4.05226 3.10911 4.00814 3.07408 3.96676 3.03596V3.03516ZM5.29236 3.40156C5.30596 3.40156 5.36516 3.40956 5.43796 3.42556C5.89636 3.52796 6.71796 3.68396 7.24356 3.77276C7.29784 3.77762 7.35132 3.78917 7.40276 3.80716C7.38112 3.8264 7.35654 3.84207 7.32996 3.85356C7.24116 3.89916 6.88196 4.11116 6.76436 4.19196C6.46516 4.39116 6.19556 4.60636 6.00116 4.79996C5.92356 4.87836 5.85556 4.94236 5.85556 4.94236C5.85556 4.94236 5.83956 4.89676 5.82596 4.83996C5.70088 4.38849 5.53956 3.94786 5.34356 3.52236C5.32329 3.48211 5.30539 3.4407 5.28996 3.39836C5.28996 3.40396 5.28996 3.40156 5.29236 3.40156ZM7.62596 3.84556C7.64196 3.85036 7.66916 3.94156 7.72356 4.14396C7.8429 4.62192 7.88103 5.11655 7.83636 5.60716L7.82836 5.63356L7.68836 5.58796C7.30386 5.46862 6.91769 5.35474 6.52996 5.24636C6.38942 5.21159 6.2506 5.17021 6.11396 5.12236C6.11396 5.10636 6.44836 4.77276 6.59156 4.64636C6.86356 4.40716 7.60196 3.83676 7.62596 3.84556ZM7.81236 3.87196C7.82036 3.86396 8.92836 4.05516 9.43156 4.15196C9.75021 4.2119 10.0676 4.27831 10.3836 4.35116C10.3996 4.35596 10.3428 4.38876 10.162 4.46876C9.45076 4.78876 8.92196 5.07676 8.39716 5.42636C8.25956 5.51836 8.14356 5.59356 8.14116 5.59356C8.13876 5.59356 8.13556 5.51516 8.13556 5.42156C8.13556 4.90956 8.03316 4.39356 7.84436 3.95756C7.83051 3.93032 7.81978 3.90161 7.81236 3.87196ZM10.6764 4.43676C10.6844 4.44476 10.65 4.66316 10.618 4.79196C10.5204 5.19196 10.2596 5.78716 9.93796 6.34636C9.90436 6.40963 9.86696 6.47081 9.82596 6.52956C9.7696 6.50515 9.7153 6.47626 9.66356 6.44316C9.35156 6.26076 8.99556 6.08796 8.60756 5.92716C8.49956 5.88156 8.40516 5.84316 8.40276 5.83836C8.38356 5.82236 9.25076 5.24876 9.70916 4.97436C10.0732 4.75436 10.6652 4.42636 10.6764 4.43676ZM10.882 4.46876C10.906 4.46876 11.3964 4.60396 11.6524 4.67916C12.286 4.86716 13.0132 5.13356 13.4876 5.34876L13.6844 5.43676L13.5468 5.46956C12.3884 5.73596 11.3964 6.04236 10.4396 6.42956C10.3612 6.46156 10.2916 6.48876 10.286 6.48876C10.2999 6.44125 10.319 6.39539 10.3428 6.35196C10.6308 5.74156 10.8172 5.10396 10.8628 4.55996C10.8652 4.50956 10.8732 4.46876 10.882 4.46876ZM5.99876 5.58876C6.00676 5.57996 6.38116 5.66876 6.58276 5.72476C6.89076 5.81116 7.54276 6.02876 7.54276 6.04476C7.54276 6.04796 7.47076 6.10956 7.38356 6.18476C7.00464 6.50239 6.63797 6.83437 6.28436 7.17996C6.16276 7.29596 6.06036 7.39036 6.05556 7.39036C6.04996 7.39036 6.04756 7.37436 6.04996 7.35276C6.11156 6.90076 6.09796 6.31996 6.01236 5.73036C6.00436 5.65516 5.99636 5.59116 5.99876 5.58876ZM13.8708 5.59676C13.8756 5.60156 13.698 5.88156 13.5844 6.03996C13.4228 6.27116 13.186 6.57756 12.6492 7.25036C12.3668 7.60556 12.0492 8.00556 11.9436 8.14076C11.8356 8.27516 11.7468 8.38796 11.7436 8.38796C11.7412 8.38796 11.7068 8.33996 11.6684 8.27996C11.3653 7.82823 10.9977 7.42338 10.5772 7.07836C10.5116 7.02316 10.4449 6.96928 10.3772 6.91676C10.3576 6.90372 10.3396 6.88841 10.3236 6.87116C10.3236 6.86316 10.782 6.66636 11.13 6.52716C11.8069 6.25527 12.4944 6.01028 13.1908 5.79276C13.5172 5.69036 13.8652 5.59116 13.8708 5.59676ZM14.078 5.64956C14.1324 5.66769 14.1841 5.69326 14.2316 5.72556C15.0915 6.21672 15.8658 6.84436 16.5244 7.58396L16.2556 7.60556C15.1204 7.69116 13.6684 7.93036 12.2716 8.26716C12.211 8.28152 12.1502 8.29486 12.0892 8.30716C12.0836 8.30716 12.1884 8.20236 12.3212 8.07516C13.1404 7.28796 13.5148 6.79036 13.9564 5.90236C14.0188 5.77116 14.0724 5.65756 14.078 5.64956C14.0748 5.64956 14.0748 5.64956 14.078 5.64956ZM8.07636 6.26316C8.11396 6.27116 8.46436 6.43516 8.72836 6.56716C8.97076 6.68796 9.33476 6.88156 9.35396 6.89756C9.35636 6.90076 9.22676 6.96796 9.06836 7.04556C8.56116 7.29836 8.12756 7.53756 7.67476 7.81196C7.54516 7.89036 7.43796 7.95516 7.43476 7.95516C7.42436 7.95516 7.42676 7.94396 7.49956 7.81196C7.74196 7.37196 7.93636 6.84396 8.04676 6.33036C8.05716 6.29036 8.06836 6.26316 8.07636 6.26316ZM7.72596 6.32716C7.73396 6.33516 7.64276 6.66636 7.58596 6.84716C7.47556 7.18796 7.28996 7.61596 7.10916 7.93836L6.96596 8.18636L6.89876 8.29356L6.74756 8.14876C6.60111 8.0002 6.43209 7.87573 6.24676 7.77996C6.20108 7.75945 6.15764 7.73425 6.11716 7.70476C6.11716 7.68316 6.57796 7.26636 6.93076 6.96476C7.18436 6.74716 7.71796 6.31916 7.72596 6.32716ZM9.86836 7.20716L10.0004 7.29356C10.302 7.48956 10.658 7.75036 10.93 7.97916C11.0836 8.10556 11.3804 8.37116 11.4396 8.43596L11.4716 8.47116L11.254 8.53276C10.1386 8.83596 9.03701 9.18776 7.95236 9.58716C7.87436 9.61748 7.79539 9.64523 7.71556 9.67036C7.69956 9.67036 7.68596 9.68396 7.96356 9.42876C8.67476 8.77516 9.30516 8.05436 9.77396 7.35276L9.86836 7.20716ZM9.30516 7.34716C9.31076 7.35276 8.94116 7.87116 8.72116 8.16476C8.45636 8.51436 7.98756 9.10076 7.66436 9.48236C7.52916 9.64156 7.41316 9.77276 7.40836 9.77596C7.40036 9.77836 7.39716 9.73836 7.39716 9.67596C7.39716 9.35036 7.31396 9.00396 7.16836 8.70796C7.10596 8.58396 7.09556 8.55436 7.10916 8.54156C7.16036 8.49516 7.94436 8.04876 8.44036 7.78236C8.77476 7.60556 9.29636 7.34236 9.30516 7.34716ZM5.89876 8.18076C6.11474 8.28315 6.31755 8.41128 6.50276 8.56236C6.50836 8.56796 6.43796 8.62476 6.34596 8.69196C6.08996 8.87436 5.70196 9.16796 5.47556 9.34796C5.23876 9.53676 5.23076 9.54156 5.25796 9.50156C5.39285 9.30335 5.51317 9.0956 5.61796 8.87996C5.70196 8.70556 5.78596 8.49836 5.84516 8.31836C5.85543 8.26989 5.87354 8.22341 5.89876 8.18076ZM6.80676 8.89116C6.82036 8.88796 6.83716 8.91196 6.90916 9.01996C7.06276 9.24876 7.18116 9.55516 7.21156 9.80236L7.21636 9.85596L6.84756 9.99916C6.18756 10.2552 5.57796 10.5072 5.16596 10.6952C5.04996 10.7496 4.84836 10.8464 4.71556 10.9112C4.58356 10.9776 4.47556 11.0288 4.47556 11.0264C4.47556 11.024 4.55956 10.9624 4.66196 10.8864C5.46756 10.3024 6.16596 9.66236 6.68836 9.02236C6.74516 8.95516 6.79636 8.89356 6.80196 8.89116H6.80676ZM6.38916 8.99276C6.40036 9.00396 6.09316 9.35036 5.88276 9.56316C5.36276 10.0928 4.84836 10.5072 4.20916 10.9104L4.04756 11.0128C4.02836 11.024 4.05316 10.9968 4.33316 10.6928C4.51076 10.5016 4.64516 10.3408 4.79956 10.1408C4.90196 10.0096 4.92036 9.99116 5.06916 9.88556C5.46516 9.60076 6.37876 8.98156 6.38916 8.99276Z" fill="#A91D22"/>
</svg>
