<svg width="24" height="24" viewBox="0 0 24 24" fill="none" xmlns="http://www.w3.org/2000/svg">
<g clip-path="url(#clip0_6698_68358)">
<path d="M21.4067 24H2.59333C1.16109 24 0 22.8389 0 21.4067V2.59333C0 1.16109 1.16109 0 2.59333 0H21.4066C22.8389 0 24 1.16109 24 2.59333V21.4066C24 22.8389 22.8389 24 21.4067 24Z" fill="black"/>
<path d="M21.5742 12.0499C21.5742 12.7105 21.0386 13.2461 20.3779 13.2461C19.7172 13.2461 19.1816 12.7105 19.1816 12.0499C19.1816 11.3891 19.7172 10.8535 20.3779 10.8535C21.0386 10.8535 21.5742 11.3891 21.5742 12.0499Z" fill="#669CFE"/>
<path d="M19.1075 14.4874C19.1075 15.148 18.5719 15.6836 17.9112 15.6836C17.2504 15.6836 16.7148 15.148 16.7148 14.4874C16.7148 13.8266 17.2504 13.291 17.9112 13.291C18.5719 13.291 19.1075 13.8266 19.1075 14.4874Z" fill="#3FE7FE"/>
<path d="M16.6367 16.9755C16.6367 17.6363 16.1011 18.1719 15.4405 18.1719C14.7797 18.1719 14.2441 17.6363 14.2441 16.9755C14.2441 16.3149 14.7797 15.7793 15.4405 15.7793C16.1011 15.7793 16.6367 16.3149 16.6367 16.9755Z" fill="white"/>
<path d="M19.0306 9.59396C19.0306 10.2124 18.5292 10.7137 17.9109 10.7137C17.2924 10.7137 16.791 10.2124 16.791 9.59396C16.791 8.9755 17.2924 8.47412 17.9109 8.47412C18.5292 8.47412 19.0306 8.9755 19.0306 9.59396Z" fill="#669CFE"/>
<path d="M16.5697 12.0279C16.5697 12.6464 16.0683 13.1478 15.4499 13.1478C14.8315 13.1478 14.3301 12.6464 14.3301 12.0279C14.3301 11.4095 14.8315 10.9081 15.4499 10.9081C16.0683 10.9081 16.5697 11.4095 16.5697 12.0279Z" fill="#3FE7FE"/>
<path d="M14.1165 14.4977C14.1165 15.1161 13.6153 15.6175 12.9968 15.6175C12.3783 15.6175 11.877 15.1161 11.877 14.4977C11.877 13.8792 12.3783 13.3779 12.9968 13.3779C13.6153 13.3779 14.1165 13.8792 14.1165 14.4977Z" fill="white"/>
<path d="M16.4775 7.1471C16.4775 7.70876 16.0222 8.16419 15.4605 8.16419C14.8987 8.16419 14.4434 7.70876 14.4434 7.1471C14.4434 6.58535 14.8987 6.13 15.4605 6.13C16.0222 6.13 16.4775 6.58535 16.4775 7.1471Z" fill="#669CFE"/>
<path d="M14.0187 9.58042C14.0187 10.1421 13.5632 10.5975 13.0015 10.5975C12.4398 10.5975 11.9844 10.1421 11.9844 9.58042C11.9844 9.01867 12.4398 8.56323 13.0015 8.56323C13.5632 8.56323 14.0187 9.01867 14.0187 9.58042Z" fill="#3FE7FE"/>
<path d="M11.5557 12.058C11.5557 12.6197 11.1003 13.0751 10.5386 13.0751C9.97683 13.0751 9.52148 12.6197 9.52148 12.058C9.52148 11.4963 9.97683 11.0409 10.5386 11.0409C11.1003 11.0409 11.5557 11.4963 11.5557 12.058Z" fill="white"/>
<path d="M13.934 4.68827C13.934 5.19321 13.5247 5.60252 13.0197 5.60252C12.5148 5.60252 12.1055 5.19321 12.1055 4.68827C12.1055 4.18324 12.5148 3.77393 13.0197 3.77393C13.5247 3.77393 13.934 4.18324 13.934 4.68827Z" fill="#669CFE"/>
<path d="M11.4652 7.13337C11.4652 7.6383 11.0559 8.04771 10.551 8.04771C10.046 8.04771 9.63672 7.6383 9.63672 7.13337C9.63672 6.62843 10.046 6.21912 10.551 6.21912C11.0559 6.21912 11.4652 6.62843 11.4652 7.13337Z" fill="#3FE7FE"/>
<path d="M9.00633 9.60673C9.00633 10.1117 8.59692 10.521 8.09198 10.521C7.58705 10.521 7.17773 10.1117 7.17773 9.60673C7.17773 9.10179 7.58705 8.69238 8.09198 8.69238C8.59692 8.69238 9.00633 9.10179 9.00633 9.60673Z" fill="white"/>
<path d="M8.91255 14.5051C8.91255 14.9539 8.54861 15.3177 8.09983 15.3177C7.65095 15.3177 7.28711 14.9539 7.28711 14.5051C7.28711 14.0562 7.65095 13.6924 8.09983 13.6924C8.54861 13.6924 8.91255 14.0562 8.91255 14.5051Z" fill="#6A9EFE"/>
<path d="M11.3618 16.9543C11.3618 17.4031 10.9978 17.7669 10.549 17.7669C10.1002 17.7669 9.73633 17.4031 9.73633 16.9543C9.73633 16.5054 10.1002 16.1416 10.549 16.1416C10.9978 16.1416 11.3618 16.5054 11.3618 16.9543Z" fill="#6A9EFE"/>
<path d="M13.8071 19.3996C13.8071 19.8485 13.4432 20.2124 12.9944 20.2124C12.5455 20.2124 12.1816 19.8485 12.1816 19.3996C12.1816 18.9508 12.5455 18.5869 12.9944 18.5869C13.4432 18.5869 13.8071 18.9508 13.8071 19.3996Z" fill="#6A9EFE"/>
<path d="M8.92427 19.3996C8.92427 19.8485 8.56033 20.2124 8.11155 20.2124C7.66267 20.2124 7.29883 19.8485 7.29883 19.3996C7.29883 18.9508 7.66267 18.5869 8.11155 18.5869C8.56033 18.5869 8.92427 18.9508 8.92427 19.3996Z" fill="#6A9EFE"/>
<path d="M3.99458 19.3996C3.99458 19.8485 3.63073 20.2124 3.18186 20.2124C2.73308 20.2124 2.36914 19.8485 2.36914 19.3996C2.36914 18.9508 2.73308 18.5869 3.18186 18.5869C3.63073 18.5869 3.99458 18.9508 3.99458 19.3996Z" fill="#6A9EFE"/>
<path d="M6.4438 16.9504C6.4438 17.3993 6.07995 17.7631 5.63108 17.7631C5.1823 17.7631 4.81836 17.3993 4.81836 16.9504C4.81836 16.5015 5.1823 16.1377 5.63108 16.1377C6.07995 16.1377 6.4438 16.5015 6.4438 16.9504Z" fill="#6A9EFE"/>
<path d="M8.92317 4.69056C8.92317 5.15959 8.54292 5.53984 8.07389 5.53984C7.60486 5.53984 7.22461 5.15959 7.22461 4.69056C7.22461 4.22144 7.60486 3.84119 8.07389 3.84119C8.54292 3.84119 8.92317 4.22144 8.92317 4.69056Z" fill="#3FE7FE"/>
<path d="M6.45061 7.17545C6.45061 7.64458 6.07036 8.02483 5.60123 8.02483C5.1322 8.02483 4.75195 7.64458 4.75195 7.17545C4.75195 6.70642 5.1322 6.32617 5.60123 6.32617C6.07036 6.32617 6.45061 6.70642 6.45061 7.17545Z" fill="white"/>
<path d="M3.86077 4.65592C3.86077 5.03439 3.55392 5.34123 3.17545 5.34123C2.79708 5.34123 2.49023 5.03439 2.49023 4.65592C2.49023 4.27755 2.79708 3.9707 3.17545 3.9707C3.55392 3.9707 3.86077 4.27755 3.86077 4.65592Z" fill="white"/>
</g>
<defs>
<clipPath id="clip0_6698_68358">
<rect width="24" height="24" fill="white"/>
</clipPath>
</defs>
</svg>
