<svg width="24" height="24" viewBox="0 0 24 24" fill="none" xmlns="http://www.w3.org/2000/svg">
<g clip-path="url(#clip0_6698_68345)">
<path d="M21.4067 24H2.59333C1.16109 24 0 22.8389 0 21.4067V2.59333C0 1.16109 1.16109 0 2.59333 0H21.4066C22.8389 0 24 1.16109 24 2.59333V21.4066C24 22.8389 22.8389 24 21.4067 24Z" fill="#336791"/>
<path d="M19.8016 14.7268C19.7919 14.6974 19.7791 14.6708 19.7637 14.6467C19.6702 14.4695 19.4428 14.4165 19.0854 14.4904C17.9722 14.7201 17.5412 14.5787 17.3849 14.4775C18.2885 13.0985 19.0311 11.4329 19.4325 9.87908C19.6152 9.17163 19.9699 7.50656 19.5147 6.69324C19.4847 6.63645 19.4511 6.5834 19.4132 6.53499C18.545 5.42563 17.2709 4.83064 15.7284 4.81425C14.7215 4.80442 13.863 5.04737 13.6304 5.13708C13.5174 5.11592 13.4016 5.09761 13.283 5.08216C13.0063 5.03173 12.7124 5.00125 12.4 4.9961C11.604 4.98346 10.9162 5.17388 10.3465 5.56207C9.76929 5.3458 7.12227 4.45454 5.48412 5.61507C4.56921 6.26325 4.14684 7.42186 4.22873 9.05865C4.25626 9.6094 4.56996 11.3034 5.06517 12.9258C5.3748 13.9402 5.6972 14.745 6.03033 15.3376C6.40264 16.007 6.78839 16.4103 7.18454 16.5425C7.48569 16.6429 7.94729 16.6395 8.43562 16.0524C8.97508 15.4037 9.5064 14.8231 9.7449 14.5664C10.0379 14.725 10.3552 14.8105 10.6808 14.8203C10.6809 14.8213 10.681 14.8222 10.6811 14.8232C10.615 14.9015 10.5608 14.9701 10.5146 15.0288C10.2865 15.3184 10.239 15.3787 9.50457 15.53C9.29566 15.573 8.7408 15.6874 8.7327 16.0763C8.73096 16.1588 8.75484 16.2319 8.79464 16.2964C8.94751 16.5812 9.41505 16.7068 9.47793 16.7225C10.3766 16.9473 11.1642 16.7847 11.748 16.2656C11.7365 17.7677 11.8002 19.2398 11.9806 19.691C12.1295 20.0633 12.4934 20.9733 13.643 20.9732C13.8116 20.9731 13.9973 20.9536 14.2016 20.9098C15.4014 20.6526 15.9223 20.1224 16.1239 18.9534C16.2251 18.3671 16.3943 17.0174 16.4866 16.1919C16.498 16.1446 16.5107 16.1107 16.525 16.1003C16.5255 16.0999 16.5719 16.0686 16.8126 16.1209C16.8224 16.1231 16.8324 16.1246 16.8424 16.1255L17.0134 16.1405C17.0167 16.1408 17.0201 16.141 17.0234 16.1412C17.5938 16.1671 18.3104 16.0451 18.7276 15.8511C19.1611 15.6499 19.9434 15.156 19.8016 14.7268ZM5.53539 12.8104C5.03479 11.1704 4.7423 9.52123 4.71917 9.05884C4.64609 7.59683 4.99995 6.57914 5.77108 6.03392C7.00774 5.15955 9.02968 5.6698 9.88354 5.94637C9.88138 5.94857 9.87914 5.95053 9.87698 5.95269C8.51437 7.32892 8.54668 9.68009 8.55 9.82383C8.54986 9.87927 8.5545 9.95778 8.56091 10.0658C8.58432 10.4612 8.62796 11.1973 8.51142 12.0307C8.40313 12.8053 8.64186 13.5634 9.16634 14.1107C9.22061 14.1674 9.27731 14.2205 9.33593 14.2707C9.10239 14.5207 8.595 15.0736 8.05493 15.7234C7.67273 16.1828 7.40881 16.0948 7.32196 16.0658C7.05803 15.9778 6.77435 15.6704 6.48804 15.175C6.1654 14.61 5.83963 13.8072 5.53539 12.8104ZM9.58005 16.2355C9.46482 16.2067 9.35981 16.1593 9.28901 16.1162C9.34885 16.0897 9.4489 16.0555 9.61441 16.0214C10.4784 15.8435 10.6119 15.718 10.9033 15.348C10.9701 15.2632 11.0458 15.167 11.1506 15.05C11.1735 15.0244 11.1901 14.9945 11.2002 14.9626C11.3151 14.8608 11.3836 14.8886 11.4943 14.9345C11.5993 14.978 11.7016 15.1096 11.743 15.2544C11.7626 15.3228 11.7847 15.4527 11.7126 15.5536C11.104 16.406 10.217 16.395 9.58005 16.2355ZM10.9899 13.5504L10.9545 13.6454C10.865 13.8855 10.7817 14.1087 10.7301 14.3206C10.2807 14.3193 9.84355 14.1273 9.51103 13.7804C9.08829 13.3393 8.89629 12.7257 8.98421 12.0969C9.1073 11.2164 9.06189 10.4495 9.03745 10.0375C9.03403 9.97988 9.03103 9.92936 9.02921 9.88943C9.22829 9.71296 10.1509 9.21859 10.8087 9.36939C11.1089 9.43817 11.2918 9.64259 11.3679 9.99421C11.7615 11.8147 11.4199 12.5734 11.1456 13.1831C11.089 13.3088 11.0356 13.4275 10.9899 13.5504ZM15.9479 16.6291C15.8812 17.3272 15.7374 18.042 15.5976 18.6952C15.3977 19.6292 15.0064 20.1945 13.9701 20.4165C12.9497 20.6354 12.7687 20.082 12.6092 19.5939C12.5915 19.5399 12.5748 19.4888 12.5574 19.4413C12.4123 19.0469 12.4288 18.4907 12.4514 17.721C12.4625 17.3431 12.4346 16.4408 12.2291 15.9393C12.232 15.7419 12.2362 15.5415 12.2419 15.3388C12.2426 15.3124 12.2389 15.287 12.2316 15.263C12.2253 15.2168 12.2156 15.1701 12.2021 15.123C12.1195 14.8347 11.9184 14.5935 11.6771 14.4934C11.5813 14.4537 11.4052 14.3809 11.1938 14.435C11.2389 14.2491 11.3171 14.0395 11.4019 13.8124L11.4375 13.7167C11.4775 13.609 11.5277 13.4973 11.581 13.3792C11.8681 12.7412 12.2614 11.8674 11.8345 9.89341C11.6746 9.15407 11.1406 8.79299 10.3314 8.87685C9.84613 8.92708 9.40227 9.12289 9.18086 9.23507C9.13329 9.25918 9.08975 9.2825 9.04901 9.3052C9.11077 8.5602 9.34431 7.168 10.2176 6.28722C10.2831 6.22125 10.3513 6.15949 10.4218 6.10144C10.9284 5.71723 11.6605 5.48519 12.4059 5.49755C12.6813 5.502 12.9457 5.52035 13.1965 5.55209C14.502 5.79074 15.3806 6.52624 15.9138 7.15639C16.4621 7.80429 16.759 8.45687 16.8775 8.80886C15.9865 8.71827 15.3804 8.89417 15.0733 9.33334C14.4049 10.2887 15.4388 12.1429 15.9358 13.0341C16.0269 13.1975 16.1056 13.3385 16.1303 13.3984C16.2921 13.7907 16.5016 14.0525 16.6546 14.2437C16.7015 14.3022 16.747 14.359 16.7816 14.4086C16.5116 14.4864 16.0269 14.6662 16.0711 15.5646C16.0628 15.6699 16.0426 15.8655 16.0149 16.1132C15.9838 16.253 15.9676 16.4231 15.9479 16.6291ZM16.5475 15.5375C16.5202 14.9777 16.7287 14.9191 16.9492 14.8572C16.9804 14.8485 17.0106 14.8398 17.0401 14.8299C17.0666 14.8532 17.0962 14.8766 17.1305 14.8992C17.5145 15.1527 18.1959 15.1828 19.155 14.9896C19.0193 15.1088 18.8056 15.2586 18.5132 15.3944C18.2372 15.5225 17.7754 15.6186 17.3368 15.6392C16.852 15.6621 16.6056 15.5849 16.5475 15.5375ZM16.931 9.29528C16.927 9.53149 16.8945 9.74592 16.86 9.96982C16.8229 10.2106 16.7846 10.4595 16.775 10.7617C16.7654 11.0558 16.8021 11.3615 16.8377 11.6572C16.9094 12.2545 16.9831 12.8693 16.6979 13.476C16.6536 13.3974 16.6109 13.3115 16.5717 13.2164C16.5362 13.1305 16.4593 12.9925 16.3527 12.8016C15.9382 12.0581 14.9675 10.3173 15.4645 9.60701C15.72 9.24162 16.3672 9.22584 16.931 9.29528ZM17.0847 14.0176C17.0661 13.9938 17.047 13.9699 17.0274 13.9453C17.0195 13.9354 17.0115 13.9254 17.0034 13.9153C17.4924 13.1078 17.3968 12.3087 17.3117 11.6002C17.2767 11.3095 17.2437 11.0349 17.2521 10.777C17.2608 10.5036 17.2969 10.2691 17.3318 10.0424C17.3749 9.76301 17.3706 9.48869 17.4065 9.13309C17.4102 9.09643 17.4191 9.05514 17.4144 9.00499C17.3836 8.67814 17.0106 7.70011 16.25 6.81474C15.8409 6.33858 15.2472 5.80684 14.4398 5.44174C14.7934 5.37006 15.2699 5.30479 15.8025 5.31645C17.1838 5.34716 18.2766 5.8642 19.0507 6.85318C19.0666 6.8736 19.0815 6.89644 19.0957 6.9207C19.5825 7.83341 18.9097 11.1458 17.0847 14.0176Z" fill="white"/>
<path d="M10.7377 9.61775C10.5641 9.59355 10.4068 9.61588 10.3273 9.67614C10.2825 9.70999 10.2687 9.74927 10.265 9.77629C10.255 9.84787 10.3051 9.92705 10.3359 9.96788C10.4231 10.0834 10.5505 10.1628 10.6765 10.1803C10.6948 10.1829 10.7129 10.1841 10.731 10.1841C10.9413 10.1841 11.1324 10.0205 11.1492 9.89956C11.1704 9.74829 10.9506 9.64739 10.7377 9.61775Z" fill="white"/>
<path d="M16.0603 9.498C15.8603 9.52585 15.6663 9.61612 15.6826 9.735C15.6956 9.82747 15.8625 9.9853 16.0601 9.98525C16.0767 9.98525 16.0936 9.98413 16.1106 9.98179C16.2424 9.96348 16.3392 9.87977 16.3852 9.83145C16.4552 9.75789 16.4957 9.67587 16.4883 9.62254H16.4882C16.4717 9.50394 16.2606 9.47004 16.0603 9.498Z" fill="white"/>
</g>
<defs>
<clipPath id="clip0_6698_68345">
<rect width="24" height="24" fill="white"/>
</clipPath>
</defs>
</svg>
