<svg width="160" height="160" viewBox="0 0 160 160" fill="none" xmlns="http://www.w3.org/2000/svg">
<g clip-path="url(#clip0_9044_316323)">
<path opacity="0.2" d="M80.0107 150.185C121.483 150.185 155.103 116.565 155.103 75.0927C155.103 33.6201 121.483 0 80.0107 0C38.5381 0 4.91797 33.6201 4.91797 75.0927C4.91797 116.565 38.5381 150.185 80.0107 150.185Z" fill="#EBECF3"/>
<path d="M31.606 62.2954L4.91895 107.252L45.7345 111.575H114.286L155.103 107.252L128.415 62.2954H31.606Z" fill="#ADB4CC"/>
<path d="M114.286 112.494H45.7345C45.7025 112.494 45.6704 112.491 45.6372 112.489L4.82172 108.166C4.51105 108.133 4.23713 107.944 4.09721 107.664C3.95729 107.384 3.96915 107.052 4.12804 106.784L30.8162 61.8269C30.9823 61.5482 31.2823 61.3774 31.606 61.3774H128.415C128.739 61.3774 129.039 61.5482 129.205 61.8269L155.893 106.783C156.053 107.052 156.065 107.384 155.924 107.663C155.784 107.943 155.511 108.131 155.199 108.165L114.384 112.488C114.352 112.491 114.318 112.494 114.286 112.494ZM45.7831 110.657H114.238L153.582 106.49L127.893 63.2142H32.1301L6.43912 106.489L45.7831 110.657Z" fill="#D4D7E3"/>
<path d="M121.55 96.8771H38.4699C34.6327 96.8771 31.5225 93.7668 31.5225 89.9296V46.2682C31.5225 42.4311 34.6327 39.3208 38.4699 39.3208H121.55C125.387 39.3208 128.497 42.4311 128.497 46.2682V89.9296C128.497 93.7668 125.387 96.8771 121.55 96.8771Z" fill="white"/>
<path d="M121.579 97.7954H117.589C117.082 97.7954 116.671 97.3839 116.671 96.8776C116.671 96.3701 117.083 95.9586 117.589 95.9586H121.579C122.087 95.9586 122.498 96.3701 122.498 96.8776C122.498 97.3851 122.087 97.7954 121.579 97.7954ZM111.647 97.7954H107.686C107.178 97.7954 106.767 97.3839 106.767 96.8776C106.767 96.3701 107.178 95.9586 107.686 95.9586H111.647C112.155 95.9586 112.565 96.3701 112.565 96.8776C112.565 97.3851 112.155 97.7954 111.647 97.7954ZM101.742 97.7954H97.7807C97.2732 97.7954 96.863 97.3839 96.863 96.8776C96.863 96.3701 97.2744 95.9586 97.7807 95.9586H101.742C102.25 95.9586 102.66 96.3701 102.66 96.8776C102.661 97.3851 102.25 97.7954 101.742 97.7954ZM91.8388 97.7954H87.8772C87.3696 97.7954 86.9594 97.3839 86.9594 96.8776C86.9594 96.3701 87.3708 95.9586 87.8772 95.9586H91.8388C92.3463 95.9586 92.7566 96.3701 92.7566 96.8776C92.7578 97.3851 92.3463 97.7954 91.8388 97.7954ZM81.9352 97.7954H77.9736C77.4661 97.7954 77.0558 97.3839 77.0558 96.8776C77.0558 96.3701 77.4673 95.9586 77.9736 95.9586H81.9352C82.4428 95.9586 82.853 96.3701 82.853 96.8776C82.853 97.3851 82.4416 97.7954 81.9352 97.7954ZM72.0305 97.7954H68.0688C67.5613 97.7954 67.151 97.3839 67.151 96.8776C67.151 96.3701 67.5625 95.9586 68.0688 95.9586H72.0305C72.538 95.9586 72.9483 96.3701 72.9483 96.8776C72.9495 97.3851 72.538 97.7954 72.0305 97.7954ZM62.1269 97.7954H58.1652C57.6577 97.7954 57.2474 97.3839 57.2474 96.8776C57.2474 96.3701 57.6589 95.9586 58.1652 95.9586H62.1269C62.6344 95.9586 63.0447 96.3701 63.0447 96.8776C63.0447 97.3851 62.6332 97.7954 62.1269 97.7954ZM52.2221 97.7954H48.2605C47.7529 97.7954 47.3427 97.3839 47.3427 96.8776C47.3427 96.3701 47.7541 95.9586 48.2605 95.9586H52.2221C52.7296 95.9586 53.1411 96.3701 53.1411 96.8776C53.1411 97.3851 52.7296 97.7954 52.2221 97.7954ZM42.3185 97.7954H38.4707C38.428 97.7954 38.3853 97.7954 38.3415 97.7942C37.8339 97.7859 37.4296 97.3685 37.4379 96.861C37.4462 96.3535 37.8624 95.9479 38.3699 95.9574C38.4031 95.9574 38.4363 95.9586 38.4695 95.9586H42.3162C42.8237 95.9586 43.234 96.3701 43.234 96.8776C43.2363 97.3851 42.8261 97.7954 42.3185 97.7954ZM126.812 95.3859C126.6 95.3859 126.386 95.3124 126.212 95.163C125.828 94.8321 125.785 94.2511 126.117 93.8681C126.874 92.9918 127.359 91.9246 127.521 90.7827C127.592 90.2811 128.058 89.9313 128.559 90.0025C129.061 90.0736 129.41 90.5384 129.339 91.04C129.128 92.5317 128.495 93.9238 127.507 95.0681C127.325 95.278 127.069 95.3859 126.812 95.3859ZM33.1549 95.3207C32.8928 95.3207 32.6331 95.2092 32.4517 94.9934C31.4782 93.8373 30.8628 92.4369 30.6695 90.9428C30.6043 90.44 30.96 89.9799 31.4628 89.9147C31.9656 89.8507 32.4256 90.2052 32.4909 90.708C32.6379 91.8523 33.1098 92.9242 33.8557 93.81C34.1829 94.1977 34.1331 94.7776 33.7442 95.1037C33.5735 95.2495 33.3636 95.3207 33.1549 95.3207ZM128.498 85.8902C127.991 85.8902 127.58 85.4788 127.58 84.9724V81.0107C127.58 80.5032 127.992 80.0918 128.498 80.0918C129.005 80.0918 129.416 80.5032 129.416 81.0107V84.9724C129.417 85.4799 129.006 85.8902 128.498 85.8902ZM31.5233 85.8048C31.0157 85.8048 30.6055 85.3934 30.6055 84.887V80.9254C30.6055 80.4179 31.0169 80.0076 31.5233 80.0076C32.0308 80.0076 32.4422 80.4191 32.4422 80.9254V84.887C32.4422 85.3934 32.0308 85.8048 31.5233 85.8048ZM128.498 75.9866C127.991 75.9866 127.58 75.5752 127.58 75.0688V71.1072C127.58 70.5997 127.992 70.1894 128.498 70.1894C129.005 70.1894 129.416 70.6008 129.416 71.1072V75.0688C129.417 75.5752 129.006 75.9866 128.498 75.9866ZM31.5233 75.9013C31.0157 75.9013 30.6055 75.4898 30.6055 74.9823V71.0206C30.6055 70.5131 31.0169 70.1016 31.5233 70.1016C32.0308 70.1016 32.4422 70.5131 32.4422 71.0206V74.9823C32.4422 75.4898 32.0308 75.9013 31.5233 75.9013ZM128.498 66.083C127.991 66.083 127.58 65.6716 127.58 65.1653V61.2036C127.58 60.6961 127.992 60.2846 128.498 60.2846C129.005 60.2846 129.416 60.6961 129.416 61.2036V65.1653C129.417 65.6716 129.006 66.083 128.498 66.083ZM31.5233 65.9965C31.0157 65.9965 30.6055 65.585 30.6055 65.0787V61.117C30.6055 60.6095 31.0169 60.1992 31.5233 60.1992C32.0308 60.1992 32.4422 60.6107 32.4422 61.117V65.0787C32.4422 65.585 32.0308 65.9965 31.5233 65.9965ZM128.498 56.1783C127.991 56.1783 127.58 55.7668 127.58 55.2605V51.2988C127.58 50.7913 127.992 50.381 128.498 50.381C129.005 50.381 129.416 50.7925 129.416 51.2988V55.2605C129.417 55.7668 129.006 56.1783 128.498 56.1783ZM31.5233 56.0929C31.0157 56.0929 30.6055 55.6814 30.6055 55.1751V51.2134C30.6055 50.7059 31.0169 50.2957 31.5233 50.2957C32.0308 50.2957 32.4422 50.7071 32.4422 51.2134V55.1751C32.4422 55.6814 32.0308 56.0929 31.5233 56.0929ZM128.439 46.2771C127.985 46.2771 127.59 45.9403 127.529 45.4779C127.38 44.3348 126.906 43.2628 126.159 42.3794C125.831 41.9917 125.88 41.413 126.267 41.0858C126.654 40.7585 127.233 40.8071 127.56 41.1937C128.536 42.3474 129.155 43.7466 129.351 45.2407C129.417 45.7435 129.063 46.2047 128.56 46.27C128.518 46.2747 128.478 46.2771 128.439 46.2771ZM31.5956 46.1929C31.5517 46.1929 31.5078 46.1893 31.464 46.1834C30.9624 46.1111 30.6138 45.6462 30.6849 45.1435C30.8984 43.653 31.5351 42.2609 32.5252 41.119C32.8573 40.7359 33.4371 40.6944 33.8213 41.0265C34.2043 41.3585 34.2458 41.9383 33.9138 42.3213C33.1549 43.1964 32.6675 44.2624 32.5039 45.4032C32.4375 45.862 32.045 46.1929 31.5956 46.1929ZM121.652 40.2403C121.647 40.2403 121.643 40.2403 121.639 40.2403C121.61 40.2403 121.58 40.2391 121.551 40.2391H117.69C117.182 40.2391 116.772 39.8276 116.772 39.3213C116.772 38.8138 117.184 38.4023 117.69 38.4023H121.551C121.589 38.4023 121.627 38.4023 121.665 38.4035C122.172 38.4106 122.576 38.828 122.569 39.3344C122.562 39.8383 122.153 40.2403 121.652 40.2403ZM38.4565 40.2403C37.949 40.2403 37.5387 39.8288 37.5387 39.3225C37.5387 38.8162 37.9502 38.4047 38.4565 38.4047V39.3225L38.4612 38.4047H42.4181C42.9257 38.4047 43.3371 38.8162 43.3371 39.3237C43.3371 39.8312 42.9257 40.2415 42.4181 40.2415L38.4565 40.2403ZM111.747 40.2403H107.785C107.278 40.2403 106.867 39.8288 106.867 39.3225C106.867 38.815 107.279 38.4035 107.785 38.4035H111.747C112.254 38.4035 112.665 38.815 112.665 39.3225C112.666 39.8288 112.254 40.2403 111.747 40.2403ZM101.843 40.2403H97.8815C97.374 40.2403 96.9626 39.8288 96.9626 39.3225C96.9626 38.815 97.374 38.4035 97.8815 38.4035H101.843C102.351 38.4035 102.761 38.815 102.761 39.3225C102.762 39.8288 102.351 40.2403 101.843 40.2403ZM91.9396 40.2403H87.978C87.4704 40.2403 87.0602 39.8288 87.0602 39.3225C87.0602 38.815 87.4716 38.4035 87.978 38.4035H91.9396C92.4471 38.4035 92.8574 38.815 92.8574 39.3225C92.8574 39.8288 92.4459 40.2403 91.9396 40.2403ZM82.0349 40.2403H78.0732C77.5657 40.2403 77.1554 39.8288 77.1554 39.3225C77.1554 38.815 77.5669 38.4035 78.0732 38.4035H82.0349C82.5424 38.4035 82.9526 38.815 82.9526 39.3225C82.9538 39.8288 82.5424 40.2403 82.0349 40.2403ZM72.1313 40.2403H68.1696C67.6621 40.2403 67.2518 39.8288 67.2518 39.3225C67.2518 38.815 67.6633 38.4035 68.1696 38.4035H72.1313C72.6388 38.4035 73.0491 38.815 73.0491 39.3225C73.0491 39.8288 72.6376 40.2403 72.1313 40.2403ZM62.2265 40.2403H58.2648C57.7573 40.2403 57.347 39.8288 57.347 39.3225C57.347 38.815 57.7585 38.4035 58.2648 38.4035H62.2265C62.734 38.4035 63.1455 38.815 63.1455 39.3225C63.1455 39.8288 62.734 40.2403 62.2265 40.2403ZM52.3229 40.2403H48.3612C47.8537 40.2403 47.4423 39.8288 47.4423 39.3225C47.4423 38.815 47.8537 38.4035 48.3612 38.4035H52.3229C52.8304 38.4035 53.2407 38.815 53.2407 39.3225C53.2407 39.8288 52.8304 40.2403 52.3229 40.2403Z" fill="#D4D7E3"/>
<path d="M131.325 111.574H28.6978C25.8745 111.574 23.5859 109.286 23.5859 106.462V89.9127C23.5859 87.0893 25.8745 84.8008 28.6978 84.8008H131.325C134.149 84.8008 136.437 87.0893 136.437 89.9127V106.464C136.436 109.286 134.147 111.574 131.325 111.574Z" fill="white"/>
<path d="M131.325 112.494H28.6976C25.3727 112.494 22.668 109.789 22.668 106.464V89.9135C22.668 86.5885 25.3727 83.8838 28.6976 83.8838H131.325C134.65 83.8838 137.355 86.5885 137.355 89.9135V106.464C137.355 109.789 134.65 112.494 131.325 112.494ZM28.6976 85.7206C26.3854 85.7206 24.5047 87.6012 24.5047 89.9135V106.464C24.5047 108.777 26.3854 110.657 28.6976 110.657H131.325C133.637 110.657 135.518 108.777 135.518 106.464V89.9135C135.518 87.6012 133.637 85.7206 131.325 85.7206H28.6976Z" fill="#D4D7E3"/>
<path d="M137.591 122.807H22.4319C19.2647 122.807 16.6963 120.239 16.6963 117.071V98.4997C16.6963 95.3325 19.2647 92.7642 22.4319 92.7642H137.591C140.758 92.7642 143.326 95.3325 143.326 98.4997V117.071C143.326 120.239 140.759 122.807 137.591 122.807Z" fill="white"/>
<path d="M137.591 123.724H22.4319C18.7631 123.724 15.7773 120.74 15.7773 117.07V98.4993C15.7773 94.8305 18.7619 91.8447 22.4319 91.8447H137.591C141.259 91.8447 144.245 94.8293 144.245 98.4993V117.071C144.245 120.74 141.259 123.724 137.591 123.724ZM22.4319 93.6815C19.7758 93.6815 17.6141 95.842 17.6141 98.4993V117.071C17.6141 119.727 19.7758 121.889 22.4319 121.889H137.591C140.247 121.889 142.408 119.728 142.408 117.071V98.4993C142.408 95.8432 140.247 93.6815 137.591 93.6815H22.4319Z" fill="#D4D7E3"/>
<path d="M155.103 107.252V152.849C155.103 156.29 152.313 159.081 148.871 159.081H11.1514C7.70789 159.081 4.91895 156.29 4.91895 152.849V107.252C4.91895 103.81 7.70907 101.02 11.1514 101.02H40.4578C43.3724 101.02 45.7356 103.383 45.7356 106.298C45.7356 109.213 48.0989 111.576 51.0135 111.576H109.01C111.924 111.576 114.288 109.213 114.288 106.298C114.288 103.383 116.651 101.02 119.565 101.02H148.872C152.313 101.02 155.103 103.81 155.103 107.252Z" fill="#EBECF3"/>
<path d="M148.871 160.001H11.1514C7.2087 160.001 4 156.793 4 152.85V107.253C4 103.31 7.20752 100.102 11.1514 100.102H40.4578C43.874 100.102 46.6535 102.881 46.6535 106.297C46.6535 108.701 48.6088 110.656 51.0124 110.656H109.009C111.412 110.656 113.367 108.701 113.367 106.297C113.367 102.881 116.147 100.102 119.563 100.102H148.87C152.812 100.102 156.021 103.309 156.021 107.253V152.85C156.022 156.793 152.813 160.001 148.871 160.001ZM11.1514 101.938C8.22135 101.938 5.83676 104.323 5.83676 107.253V152.85C5.83676 155.78 8.22017 158.164 11.1514 158.164H148.871C151.801 158.164 154.185 155.78 154.185 152.85V107.253C154.185 104.323 151.802 101.938 148.871 101.938H119.564C117.161 101.938 115.205 103.894 115.205 106.297C115.205 109.713 112.426 112.493 109.01 112.493H51.0136C47.5973 112.493 44.8179 109.713 44.8179 106.297C44.8179 103.894 42.8625 101.938 40.459 101.938H11.1514Z" fill="#D4D7E3"/>
<path d="M87.8328 71.75C87.4154 71.75 86.9968 71.5911 86.6778 71.2722L71.0351 55.6294C70.3972 54.9915 70.3972 53.9587 71.0351 53.3207C71.673 52.6828 72.7059 52.6828 73.3438 53.3207L88.9865 68.9635C89.6245 69.6014 89.6245 70.6342 88.9865 71.2722C88.6675 71.5911 88.2502 71.75 87.8328 71.75Z" fill="#D4D7E3"/>
<path d="M72.1891 71.75C71.7717 71.75 71.3531 71.5911 71.0341 71.2722C70.3962 70.6342 70.3962 69.6014 71.0341 68.9635L86.6768 53.3207C87.3148 52.6828 88.3476 52.6828 88.9856 53.3207C89.6235 53.9587 89.6235 54.9915 88.9856 55.6294L73.344 71.2722C73.025 71.5911 72.6076 71.75 72.1891 71.75Z" fill="#D4D7E3"/>
</g>
<defs>
<clipPath id="clip0_9044_316323">
<rect width="160" height="160" fill="white"/>
</clipPath>
</defs>
</svg>
