<svg width="32" height="32" viewBox="0 0 32 32" fill="none" xmlns="http://www.w3.org/2000/svg">
<rect width="32" height="32" rx="16" fill="#ADB4CC"/>
<path d="M19.22 22L17.844 18.464H13.316L11.956 22H10.5L14.964 10.528H16.26L20.708 22H19.22ZM16.132 13.728C16.1 13.6427 16.0467 13.488 15.972 13.264C15.8973 13.04 15.8227 12.8107 15.748 12.576C15.684 12.3307 15.6307 12.144 15.588 12.016C15.5347 12.2293 15.476 12.448 15.412 12.672C15.3587 12.8853 15.3 13.0827 15.236 13.264C15.1827 13.4453 15.1347 13.6 15.092 13.728L13.796 17.184H17.412L16.132 13.728Z" fill="white"/>
</svg>
