<svg width="44" height="44" viewBox="0 0 44 44" fill="none" xmlns="http://www.w3.org/2000/svg">
<rect width="44" height="44" rx="22" fill="#ADB4CC"/>
<path d="M25.22 28L23.844 24.464H19.316L17.956 28H16.5L20.964 16.528H22.26L26.708 28H25.22ZM22.132 19.728C22.1 19.6427 22.0467 19.488 21.972 19.264C21.8973 19.04 21.8227 18.8107 21.748 18.576C21.684 18.3307 21.6307 18.144 21.588 18.016C21.5347 18.2293 21.476 18.448 21.412 18.672C21.3587 18.8853 21.3 19.0827 21.236 19.264C21.1827 19.4453 21.1347 19.6 21.092 19.728L19.796 23.184H23.412L22.132 19.728Z" fill="white"/>
</svg>
